<svg data-v-423bf9ae="" xmlns="http://www.w3.org/2000/svg" viewBox="0 0 100.1901314751551 60" class="font"><!----><!----><defs data-v-423bf9ae=""><linearGradient data-v-423bf9ae="" gradientTransform="rotate(25)" id="cfe62e56-5b3e-4d71-8035-7b02048db084" x1="0%" y1="0%" x2="100%" y2="0%"><stop data-v-423bf9ae="" offset="0%" style="stop-color: rgb(169, 37, 128); stop-opacity: 1;"></stop><stop data-v-423bf9ae="" offset="100%" style="stop-color: rgb(247, 188, 0); stop-opacity: 1;"></stop></linearGradient></defs><g data-v-423bf9ae="" id="a2da7953-9864-4c38-bd82-ac863aafb25f" fill="url(#cfe62e56-5b3e-4d71-8035-7b02048db084)" transform="matrix(5.185824692429772,0,0,5.185824692429772,-5.082107487676687,-86.70698529660257)"><path d="M7 16.72L7 16.72Q7.74 16.72 8.71 16.93L8.71 16.93L8.71 16.93Q9.69 17.14 10.14 17.37L10.14 17.37L10.14 20.09L9.60 20.09L9.60 20.09Q8.32 17.89 6.19 17.89L6.19 17.89L6.19 17.89Q5.26 17.89 4.50 18.43L4.50 18.43L4.50 18.43Q3.74 18.97 3.30 19.93L3.30 19.93L3.30 19.93Q2.87 20.89 2.87 22.08L2.87 22.08L2.87 22.08Q2.87 23.45 3.30 24.58L3.30 24.58L3.30 24.58Q3.72 25.72 4.60 26.40L4.60 26.40L4.60 26.40Q5.47 27.09 6.76 27.09L6.76 27.09L6.76 27.09Q7.95 27.09 10.18 25.30L10.18 25.30L10.60 25.97L8.02 27.97L8.02 27.97Q7.50 28.15 7.02 28.22L7.02 28.22L7.02 28.22Q6.54 28.28 5.98 28.28L5.98 28.28L5.98 28.28Q4.51 28.28 3.37 27.57L3.37 27.57L3.37 27.57Q2.24 26.85 1.61 25.60L1.61 25.60L1.61 25.60Q0.98 24.35 0.98 22.75L0.98 22.75L0.98 22.75Q0.98 21.11 1.93 19.72L1.93 19.72L1.93 19.72Q2.88 18.33 4.30 17.52L4.30 17.52L4.30 17.52Q5.71 16.72 7 16.72L7 16.72ZM18.51 25.52L18.51 25.52Q18.51 25.09 18.16 24.71L18.16 24.71L18.16 24.71Q17.81 24.33 17.28 24.02L17.28 24.02L17.28 24.02Q16.76 23.70 15.86 23.24L15.86 23.24L15.86 23.24Q14.80 22.68 14.15 22.28L14.15 22.28L14.15 22.28Q13.51 21.88 13.05 21.34L13.05 21.34L13.05 21.34Q12.60 20.79 12.60 20.13L12.60 20.13L12.60 20.13Q12.60 19.43 13.19 18.63L13.19 18.63L13.19 18.63Q13.78 17.82 14.62 17.27L14.62 17.27L14.62 17.27Q15.47 16.72 16.18 16.72L16.18 16.72L16.18 16.72Q17.05 16.72 18.20 16.93L18.20 16.93L18.20 16.93Q19.35 17.14 19.88 17.37L19.88 17.37L19.88 20.09L19.35 20.09L19.35 20.09Q18.66 18.96 17.84 18.33L17.84 18.33L17.84 18.33Q17.02 17.70 16.13 17.70L16.13 17.70L16.13 17.70Q15.33 17.70 14.86 18.19L14.86 18.19L14.86 18.19Q14.39 18.69 14.39 19.49L14.39 19.49L14.39 19.49Q14.39 19.95 14.75 20.35L14.75 20.35L14.75 20.35Q15.11 20.75 15.63 21.06L15.63 21.06L15.63 21.06Q16.16 21.36 17.09 21.85L17.09 21.85L17.09 21.85Q18.13 22.37 18.77 22.77L18.77 22.77L18.77 22.77Q19.42 23.17 19.86 23.70L19.86 23.70L19.86 23.70Q20.30 24.22 20.30 24.88L20.30 24.88L20.30 24.88Q20.30 25.58 19.67 26.38L19.67 26.38L19.67 26.38Q19.04 27.19 18.14 27.74L18.14 27.74L18.14 27.74Q17.23 28.29 16.49 28.29L16.49 28.29L16.49 28.29Q15.58 28.29 14.33 28.08L14.33 28.08L14.33 28.08Q13.08 27.87 12.53 27.64L12.53 27.64L12.53 24.92L13.06 24.92L13.06 24.92Q13.78 26.05 14.69 26.68L14.69 26.68L14.69 26.68Q15.60 27.31 16.56 27.31L16.56 27.31L16.56 27.31Q17.14 27.31 17.58 27.06L17.58 27.06L17.58 27.06Q18.03 26.81 18.27 26.40L18.27 26.40L18.27 26.40Q18.51 25.98 18.51 25.52L18.51 25.52Z"></path></g><!----><!----></svg>